<svg width="199" height="37" viewBox="0 0 199 37" fill="none" xmlns="http://www.w3.org/2000/svg">
<path d="M34.9327 22.4168C36.3863 22.4168 37.4213 23.574 37.2442 25.0018L36.6879 29.485C36.1981 33.4323 32.4768 36.6322 28.4579 36.6322H1.41186C0.596824 36.6322 -0.0343377 35.9262 0.0649971 35.1257L0.618619 30.6641C0.702164 29.9909 1.28 29.485 1.96549 29.485H27.954C28.6807 29.4849 29.3417 28.9061 29.4302 28.1923L30.1468 22.4168H34.9327Z" fill="#1DC9D8"/>
<path d="M30.1468 22.4168H9.0836C8.26859 22.4168 7.73118 21.4954 7.83048 20.6949L8.40741 16.0439C8.49093 15.3706 9.02538 14.6748 9.71089 14.6748H31.1076L30.1468 22.4168Z" fill="#1DC9D8"/>
<path d="M32.9194 0.674774C36.9383 0.674774 39.8657 3.87469 39.376 7.822L38.8463 12.0898C38.6691 13.5175 37.3471 14.6748 35.8935 14.6748H31.1076L31.7973 9.11467C31.8859 8.40085 31.3685 7.82205 30.6418 7.822H20.4975L23.5171 4.24839L21.3844 0.674774H32.9194Z" fill="#1DC9D8"/>
<path d="M14.8417 6.15756C16.7846 6.07043 18.329 6.24437 18.3792 6.34049C18.4294 6.43668 18.3893 6.66377 18.2901 6.84733C18.127 7.14415 17.7892 7.15155 14.8417 6.91815C13.0438 6.77384 11.494 6.61967 11.3995 6.57129C11.304 6.525 12.9005 6.24462 14.8417 6.15756Z" fill="#1DC9D8"/>
<path d="M13.7279 3.93874C16.4526 3.82827 18.4747 4.02673 18.479 4.12889C18.483 4.22901 18.3798 4.43571 18.2507 4.58918C18.0591 4.81616 17.1509 4.8321 13.3124 4.67868C10.7274 4.5748 8.6112 4.45611 8.60636 4.4164C8.60472 4.37679 11.0142 4.04877 13.7279 3.93874Z" fill="#1DC9D8"/>
<path d="M12.1525 1.3675C19.6031 1.04033 19.6303 1.04124 19.2509 1.46388C18.783 1.9841 18.8606 2.20991 10.8443 2.04416L4.67289 1.69567L12.1525 1.3675Z" fill="#1DC9D8"/>
<path d="M72.8817 20.9749C72.7781 21.8108 72.8606 22.5312 73.1292 23.136C73.416 23.7408 73.8459 24.2125 74.419 24.5505C75.0123 24.8707 75.689 25.0306 76.4486 25.0306C77.2263 25.0306 77.9335 24.8707 78.5701 24.5505C79.2088 24.2125 79.7375 23.7408 80.156 23.136C80.5926 22.5312 80.8618 21.8197 80.9632 21.0015L82.4045 9.36674H86.1217L84.6933 20.8945C84.5148 22.3355 84.0201 23.6256 83.2098 24.7641C82.4018 25.8848 81.3783 26.7743 80.1394 27.4324C78.9205 28.0729 77.5511 28.3931 76.0318 28.3931C74.5307 28.3931 73.232 28.0729 72.1357 27.4324C71.0597 26.7742 70.2578 25.8756 69.7296 24.737C69.2015 23.5985 69.0268 22.3088 69.2053 20.8678L70.6304 9.36674H74.3198L72.8817 20.9749Z" fill="white"/>
<path d="M174.71 9.07317C176.012 9.07319 177.158 9.31323 178.148 9.79354C179.137 10.2739 179.919 10.8966 180.493 11.6615L177.754 14.0634C177.268 13.4586 176.745 13.0139 176.183 12.7292C175.64 12.4446 174.997 12.302 174.256 12.302C173.406 12.302 172.716 12.4623 172.188 12.7825C171.66 13.1027 171.359 13.5651 171.284 14.17C171.22 14.6858 171.331 15.104 171.617 15.4242C171.903 15.7444 172.294 16.0203 172.79 16.2516C173.304 16.4828 173.864 16.7052 174.47 16.9187C175.095 17.1321 175.707 17.3722 176.307 17.639C176.925 17.9059 177.47 18.2527 177.942 18.6796C178.431 19.1066 178.797 19.6584 179.039 20.3344C179.283 20.9926 179.344 21.8108 179.223 22.7891C179.007 24.5325 178.214 25.9024 176.842 26.8986C175.471 27.8948 173.7 28.3931 171.529 28.3931C169.992 28.3931 168.704 28.1353 167.664 27.6194C166.643 27.1035 165.753 26.3293 164.995 25.2975L167.734 22.8962C168.204 23.6254 168.785 24.1947 169.476 24.6038C170.169 24.9951 171.049 25.1909 172.116 25.1909C173.075 25.1909 173.857 25.004 174.464 24.6305C175.089 24.2569 175.443 23.7409 175.524 23.0827C175.595 22.5135 175.489 22.051 175.208 21.6952C174.926 21.3394 174.53 21.0369 174.018 20.7879C173.524 20.5389 172.964 20.3165 172.337 20.1208C171.731 19.9074 171.118 19.6672 170.501 19.4004C169.901 19.1336 169.353 18.8041 168.859 18.4127C168.386 18.0036 168.024 17.4879 167.776 16.8654C167.53 16.2249 167.466 15.4242 167.585 14.4635C167.726 13.325 168.127 12.3555 168.787 11.555C169.446 10.7544 170.291 10.1406 171.321 9.7136C172.35 9.28664 173.48 9.07317 174.71 9.07317Z" fill="white"/>
<path fill-rule="evenodd" clip-rule="evenodd" d="M60.1076 9.36674C61.3735 9.36675 62.4029 9.59798 63.1956 10.0605C64.0087 10.5052 64.5861 11.1013 64.9276 11.8485C65.2713 12.5778 65.3893 13.3783 65.2814 14.2499C65.1491 15.3172 64.6998 16.2425 63.9337 17.0252C63.5342 17.4349 63.0529 17.7877 62.4909 18.0851C63.1958 18.4541 63.7554 18.9276 64.1687 19.507C64.8362 20.3965 65.0915 21.4728 64.9351 22.7358C64.8116 23.7321 64.446 24.6395 63.8382 25.4579C63.2507 26.2584 62.4468 26.9077 61.4265 27.4058C60.4265 27.8861 59.2481 28.1262 57.8916 28.1262H50.078L52.4025 9.36674H60.1076ZM54.1076 25.1643H58.1229C59.0091 25.1643 59.7297 24.8972 60.2842 24.3635C60.8567 23.8299 61.1883 23.1982 61.2786 22.4689C61.3403 21.9708 61.2878 21.5172 61.1215 21.1081C60.9759 20.7501 60.7389 20.4602 60.4103 20.2384L60.1906 20.102C59.8171 19.8831 59.3505 19.774 58.7909 19.7739H54.7757L54.1076 25.1643ZM55.1391 16.8387H58.7478C59.5073 16.8387 60.1363 16.6517 60.6347 16.2782C61.1512 15.9046 61.4559 15.3439 61.5484 14.5968C61.6432 13.8319 61.4786 13.2627 61.0547 12.8891C60.6488 12.5155 60.0661 12.3286 59.3065 12.3286H55.6983L55.1391 16.8387Z" fill="white"/>
<path d="M92.4865 28.1262H88.7971L91.1212 9.36674H94.811L92.4865 28.1262Z" fill="white"/>
<path d="M101.847 24.8974H110.583L110.183 28.1262H97.7572L100.082 9.36674H103.771L101.847 24.8974Z" fill="white"/>
<path d="M128.456 12.5955H122.378L120.454 28.1262H116.737L118.661 12.5955H112.585L112.985 9.36674H128.856L128.456 12.5955Z" fill="white"/>
<path d="M145.141 12.5689H136.053L135.477 17.2122H144.105L143.705 20.441H135.078L134.125 28.1262H130.436L132.76 9.36674H145.538L145.141 12.5689Z" fill="white"/>
<path fill-rule="evenodd" clip-rule="evenodd" d="M162.816 28.1262H158.882L157.973 24.6305H150.123L148.329 28.1262H144.476L154.478 9.36674H157.49L162.816 28.1262ZM151.685 21.5882H157.181L155.332 14.4828L151.685 21.5882Z" fill="white"/>
<path d="M198.501 12.5955H192.424L190.5 28.1262H186.783L188.707 12.5955H182.63L183.03 9.36674H198.901L198.501 12.5955Z" fill="white"/>
</svg>
